<svg xmlns="http://www.w3.org/2000/svg" width="128" height="128" id="demonstrate">
  <path d="M122 0H44a6.007 6.007 0 0 0-6 6v42a6.007 6.007 0 0 0 6 6h78a6.007 6.007 0 0 0 6-6V6a6.007 6.007 0 0 0-6-6Zm2 48a2.002 2.002 0 0 1-2 2H44a2.002 2.002 0 0 1-2-2V6a2.002 2.002 0 0 1 2-2h78a2.002 2.002 0 0 1 2 2Z"></path>
  <path d="M107 13H59a2 2 0 0 0 0 4h48a2 2 0 0 0 0-4zm0 8H59a2 2 0 0 0 0 4h48a2 2 0 0 0 0-4zm0 8H59a2 2 0 0 0 0 4h48a2 2 0 0 0 0-4zm0 8H59a2 2 0 0 0 0 4h48a2 2 0 0 0 0-4zM87 92H74.065a26.707 26.707 0 0 0 2.791-5.049 8.043 8.043 0 0 0-.812-7.496A7.832 7.832 0 0 0 69.564 76c-2.695 0-4.175 1.651-5.39 3.005-2.155 2.402-9.21 9.196-10.01 9.995H2a2 2 0 0 0 0 4h53a2 2 0 0 0 1.434-.605c.86-.885 8.464-8.207 10.743-10.746C68.272 80.427 68.729 80 69.563 80a3.786 3.786 0 0 1 3.17 1.7 3.995 3.995 0 0 1 .407 3.772 29.622 29.622 0 0 1-4.633 7.198A2 2 0 0 0 70 96h17c1.375 0 5.934.269 6.856 3.724a5.413 5.413 0 0 1-.277 3.268 45.225 45.225 0 0 0-2.16 6.57 9.744 9.744 0 0 0-.052 2.348 14.32 14.32 0 0 1 0 2.33 6.535 6.535 0 0 1-.864 2.52 7.75 7.75 0 0 0-.655 1.529c-.703 2.605-2.4 5.711-6.496 5.711h-12.59a3.796 3.796 0 0 1-2.007-.577l-7.987-4.982A7.872 7.872 0 0 0 56.645 117H31.514a2 2 0 0 0 0 4h25.13a4.854 4.854 0 0 1 2.006.835l7.989 4.982A7.786 7.786 0 0 0 70.762 128h12.59c5.096 0 8.872-3.16 10.357-8.669a6.096 6.096 0 0 1 .346-.733 10.376 10.376 0 0 0 1.294-3.986 18.191 18.191 0 0 0 .011-2.939 6.726 6.726 0 0 1 .001-1.426 46.503 46.503 0 0 1 1.954-5.826 9.293 9.293 0 0 0 .407-5.73C96.602 94.502 92.594 92 87 92z"></path>
  <path d="M32 104h20a2 2 0 0 0 0-4H32a2 2 0 0 0 0 4zm57-15.896V58h-4v30h2c.685 0 1.348.042 2 .104zM79.354 77.21A12.02 12.02 0 0 1 81 80.823V58h-4v16.669a11.89 11.89 0 0 1 2.354 2.54z"></path>
</svg>
