<svg xmlns="http://www.w3.org/2000/svg" xml:space="preserve" id="human-rights" x="0" y="0" style="enable-background:new 0 0 64 64" version="1.1" viewBox="0 0 64 64">
  <g>
    <path d="M43.66 11.07c-.19 1.52-1.47 2.73-3.04 2.75l-7.49.13c-1.52.03-2.99.36-4.38 1.01l-3.57 1.66c-3.02 1.4-6.71 1.17-9.52-.61l-1.46-.92c-.08-.05-.17-.08-.26-.08H2.62c-.27 0-.49.22-.49.49 0 .27.22.49.49.49H13.8l1.34.84c1.75 1.11 3.77 1.69 5.85 1.69 1.58 0 3.18-.35 4.62-1.02l3.57-1.66c1.26-.58 2.59-.89 3.98-.92l7.49-.13c1.8-.03 3.31-1.25 3.84-2.89l10.34 7.32c.81.56 1.74.84 2.67.84 1.21 0 2.41-.47 3.32-1.38l.61-.61c.3-.3.46-.71.44-1.13-.02-.41-.2-.79-.5-1.04L44.96 1.39c-1.14-1.04-2.71-1.53-4.3-1.35L14.59 3.33H2.63c-.27 0-.49.22-.49.49 0 .27.22.49.49.49l12.02 0 26.13-3.29c1.3-.15 2.59.25 3.53 1.11l16.42 14.55c.09.08.15.2.16.34.01.15-.05.29-.15.39l-.61.61c-1.29 1.29-3.24 1.47-4.73.43l-10.71-7.58c0-.06.02-.11.02-.17 0-2.27-1.85-4.12-4.12-4.12H30.19c-.27 0-.49.22-.49.49 0 .27.22.49.49.49h10.38c1.73 0 3.14 1.41 3.14 3.14 0 .09-.02.18-.03.27C43.67 11 43.67 11.03 43.66 11.07zM61.37 59.69l-12.02 0-26.13 3.29c-1.3.15-2.59-.25-3.53-1.11L3.27 47.33c-.09-.08-.15-.2-.16-.34-.01-.15.05-.29.15-.39l.61-.61c1.29-1.29 3.24-1.47 4.73-.43l10.71 7.58c0 .06-.02.11-.02.17 0 2.27 1.85 4.12 4.12 4.12h10.38c.27 0 .49-.22.49-.49 0-.27-.22-.49-.49-.49H23.43c-1.73 0-3.14-1.41-3.14-3.14 0-.09.02-.18.03-.27.01-.04.01-.07.01-.11.19-1.52 1.47-2.73 3.04-2.76l7.49-.13c1.52-.03 3-.37 4.38-1.01l3.56-1.66c3.01-1.4 6.71-1.17 9.52.61l1.46.92c.08.05.17.08.26.08h11.32c.27 0 .49-.22.49-.49 0-.27-.22-.49-.49-.49H50.2l-1.34-.84c-3.09-1.95-7.15-2.21-10.46-.67l-3.56 1.66c-1.25.58-2.59.89-3.98.92l-7.49.13c-1.8.03-3.31 1.25-3.84 2.89L9.18 44.75c-1.86-1.29-4.39-1.06-5.99.54l-.61.61c-.3.3-.46.71-.44 1.13.02.41.2.79.5 1.04l16.41 14.53c.99.9 2.29 1.39 3.65 1.39.21 0 .43-.01.65-.04l26.07-3.29h11.95c.27 0 .49-.22.49-.49C61.86 59.91 61.64 59.69 61.37 59.69z"></path>
    <path d="M30.83,34.36c-3.65,0-6.61,2.97-6.61,6.62v0.29c0,0.76,0.62,1.39,1.39,1.39h16.88c0.76,0,1.39-0.62,1.39-1.39v-0.29
		c0-3.65-2.97-6.62-6.61-6.62h-0.82v-1.3c1.32-0.72,2.22-1.92,2.67-3.58c0.04-0.14,0.16-0.22,0.23-0.25
		c0.81-0.38,1.3-1.02,1.35-1.77c0.05-0.68-0.29-1.33-0.92-1.82c0.78-1.79,0.92-3.04,0.43-4.02c-0.29-0.57-0.87-0.96-1.51-1.02
		c-1.44-0.12-3.35-1.14-3.35-1.14c-1.39-0.89-2.81-0.7-3.8,0.51c-0.04,0.05-0.11,0.05-0.16,0.05c-1.5-0.19-2.73,0.47-3.3,1.77
		c-0.57,1.3-0.36,2.87,0.45,3.94c-0.44,0.35-0.71,0.93-0.73,1.61c-0.02,0.92,0.44,1.69,1.17,1.98c0.07,0.03,0.13,0.1,0.16,0.19
		c0.22,0.83,0.88,2.58,2.53,3.56v1.3H30.83z M42.88,40.97v0.29c0,0.22-0.18,0.4-0.4,0.4H25.6c-0.22,0-0.4-0.18-0.4-0.4v-0.29
		c0-2.21,1.29-4.13,3.15-5.05c1.95,1.67,3.9,2.52,5.84,2.52c1.91,0,3.81-0.82,5.68-2.45C41.66,36.93,42.88,38.81,42.88,40.97z
		 M28.97,22.18c0.23-0.52,0.84-1.37,2.27-1.19c0.41,0.06,0.81-0.09,1.06-0.4c0.47-0.57,1.29-1.08,2.54-0.28
		c0.09,0.05,2.11,1.13,3.76,1.27c0.3,0.03,0.58,0.22,0.72,0.48c0.36,0.71,0.19,1.78-0.52,3.34c-2.18,0.06-3.78-1.15-4.57-1.92
		c-0.37-0.37-0.85-0.6-1.35-0.65l-0.16-0.02c-0.7-0.08-1.41,0.2-1.88,0.73l-1.49,1.66C28.72,24.42,28.54,23.15,28.97,22.18z
		 M30.07,29.25c-0.11-0.4-0.38-0.71-0.75-0.86c-0.42-0.16-0.55-0.66-0.54-1.04c0.01-0.39,0.18-0.84,0.53-0.96
		c0.21-0.07,0.45-0.17,0.65-0.39l1.63-1.82c0.23-0.26,0.57-0.41,0.92-0.41c0.04,0,0.08,0,0.13,0.01l0.16,0.02
		c0.28,0.03,0.54,0.16,0.76,0.37c0.75,0.74,2.77,2.41,5.57,2.21c0,0,0,0,0,0c0,0,0,0,0,0c0.01,0,0.02,0,0.03,0
		c0.38,0.29,0.57,0.65,0.55,1c-0.03,0.38-0.31,0.73-0.79,0.95c-0.38,0.18-0.66,0.5-0.76,0.88c-0.47,1.72-1.45,2.81-2.99,3.33
		c-0.64,0.21-1.29,0.26-1.88,0.13C31.07,32.19,30.3,30.12,30.07,29.25z M33.06,33.64c0.29,0.06,0.6,0.1,0.9,0.1
		c0.49,0,0.99-0.08,1.48-0.25v0.94c0,0.5,0.41,0.91,0.91,0.91h0.9c0.55,0,1.09,0.08,1.59,0.23c-3.12,2.51-6.22,2.5-9.43-0.04
		c0.45-0.12,0.93-0.19,1.42-0.19h0.9c0.5,0,0.91-0.41,0.91-0.91V33.5C32.78,33.54,32.91,33.6,33.06,33.64z"></path>
  </g>
</svg>
