<svg xmlns="http://www.w3.org/2000/svg" width="128" height="128" id="independent">
  <path d="M79.23 56.01a10.003 10.003 0 1 0-9.805-8.413 9.932 9.932 0 0 0 9.804 8.413Zm-.931-15.863a5.89 5.89 0 0 1 6.764 4.923 5.904 5.904 0 1 1-6.764-4.923Z"></path>
  <path d="M115.91 107.406 105.306 73.25a6.005 6.005 0 0 0-3.148-10.14L83.119 1.775A1.993 1.993 0 0 0 81.66.421c-.805-.183-19.947-4.236-40.935 17.154-9.678 9.864-18.863 13.117-24.864 14.11a4.598 4.598 0 0 0-3.635 3.15 4.663 4.663 0 0 0 1.125 4.72L37.308 63.78a4.59 4.59 0 0 0 6.424.128c3.077-2.869 8.105-9.221 13.428-15.947.92-1.163 1.844-2.33 2.76-3.483 3.246-4.082 11.704-13.517 20.094-13.02 3.958.236 7.475 2.797 10.45 7.611.039.061.08.12.122.175l7.377 23.765h-9.775a10.488 10.488 0 0 0-1.297-5.327 13.74 13.74 0 0 1-3.613 1.707 6.392 6.392 0 0 1 .92 3.62H75.26a2 2 0 0 0 0 4h25.835a2 2 0 0 1 0 3.999H78.138a2 2 0 0 0 0 4h4.885l-1.48 14.471a2.007 2.007 0 0 0 .436 1.466l4.663 5.777c1.12 3.066 4.478 16.903 5.714 22.138a1.947 1.947 0 0 0 1.99 1.536 9.94 9.94 0 0 1 3.5.455c.037.114.069.217.096.31a9.386 9.386 0 0 0-.548.203l-7.934 2.483-7.512-22.88a2.17 2.17 0 0 0-.049-.133 4.042 4.042 0 0 0-1.556-1.794c-6.777-5.772-14.134-12.238-15.947-14.126 1.687-17.616 2.005-20.935 2.065-21.611h.005a7.51 7.51 0 0 1 4.355-6.135 13.854 13.854 0 0 1-2.882-2.976 11.231 11.231 0 0 0-5.43 8.731l-2.144 22.392c-.003.033-.008.609-.009.653l-.264 14.026-8.384 19.149a3.333 3.333 0 0 0 1.449 4.349c.042.024.084.047.127.068l7.345 3.596c.061.03.124.057.189.08a6.06 6.06 0 0 1 .62.279 3.796 3.796 0 0 0 1.688.485 2.477 2.477 0 0 0 .915-.175c1.21-.474 1.775-1.708 2.336-3.15.757-1.945-.643-4.116-1.944-5.592l8.64-12.77a2.013 2.013 0 0 0 .273-.593l1.648-6c.918.786 1.889 1.614 2.926 2.497a2.012 2.012 0 0 0 .326.225l7.599 23.141a3.276 3.276 0 0 0 3.157 2.413 4.103 4.103 0 0 0 .964-.119c.043-.01.085-.023.128-.036l8.567-2.685a1.94 1.94 0 0 0 .18-.066 7.72 7.72 0 0 1 .74-.26 3.293 3.293 0 0 0 2.2-1.58c.595-1.174.218-2.537-.258-3.947-.72-2.132-3.411-2.753-5.66-2.884-1.162-4.872-4.504-18.7-5.646-21.479a2.013 2.013 0 0 0-.294-.496l-4.341-5.378 1.437-14.059h14.076c.197 0 .391-.01.583-.03l10.437 33.622a1.989 1.989 0 1 0 3.794-1.193Zm-35.661-79.94c-10.233-.607-19.8 9.946-23.432 14.513-.918 1.156-1.844 2.325-2.766 3.49-4.997 6.314-10.163 12.842-13.02 15.505a.646.646 0 0 1-.906-.015L16.168 36.734a.64.64 0 0 1-.16-.67.6.6 0 0 1 .498-.433c6.583-1.089 16.62-4.618 27.047-15.246C57.656 6.013 70.896 4.04 77.1 4.04a24.867 24.867 0 0 1 2.598.128l8.071 26.002a14.24 14.24 0 0 0-7.52-2.703Zm-10.646 76.87-9.375 13.856a2.012 2.012 0 0 0 .304 2.603 9.102 9.102 0 0 1 2.062 2.627c-.027.069-.052.131-.077.19a6.972 6.972 0 0 0-.235-.094l-6.71-3.285 8.318-18.993a2.005 2.005 0 0 0 .169-.768l.191-10.178c1.663 1.54 4.035 3.643 7.408 6.558Z"></path>
</svg>
